<svg xmlns="http://www.w3.org/2000/svg" xmlns:xlink="http://www.w3.org/1999/xlink" width="500" zoomAndPan="magnify" viewBox="0 0 375 374.999991" height="500" preserveAspectRatio="xMidYMid meet" version="1.0"><defs><g/></defs><g fill="var(--copy)" fill-opacity="1"><g transform="translate(6.251821, 214.480449)"><g><path d="M 5.609375 -130.71875 L 96.921875 -130.71875 L 96.921875 -95.421875 L 95.796875 -95.421875 C 94.179688 -102.015625 91.222656 -107.863281 86.921875 -112.96875 C 82.628906 -118.070312 77.429688 -122.117188 71.328125 -125.109375 C 65.234375 -128.097656 58.632812 -129.59375 51.53125 -129.59375 L 49.671875 -129.59375 L 49.671875 -65.921875 C 56.515625 -65.921875 62.550781 -68.003906 67.78125 -72.171875 C 73.007812 -76.335938 76.4375 -81.535156 78.0625 -87.765625 L 79.171875 -87.765625 L 79.171875 -42.953125 L 78.0625 -42.953125 C 76.4375 -49.171875 73.007812 -54.363281 67.78125 -58.53125 C 62.550781 -62.707031 56.515625 -64.796875 49.671875 -64.796875 L 49.671875 -12.328125 C 49.671875 -9.210938 50.789062 -6.566406 53.03125 -4.390625 C 55.269531 -2.210938 57.945312 -1.125 61.0625 -1.125 L 61.0625 0 L 5.609375 0 L 5.609375 -1.125 C 8.710938 -1.125 11.351562 -2.210938 13.53125 -4.390625 C 15.71875 -6.566406 16.8125 -9.210938 16.8125 -12.328125 L 16.8125 -118.390625 C 16.8125 -121.503906 15.71875 -124.148438 13.53125 -126.328125 C 11.351562 -128.503906 8.710938 -129.59375 5.609375 -129.59375 Z M 5.609375 -130.71875 "/></g></g></g><g fill="var(--copy)" fill-opacity="1"><g transform="translate(110.615742, 214.480449)"><g><path d="M 71.890625 -51.171875 L 127.359375 -51.171875 L 127.359375 -50.046875 C 124.242188 -50.046875 121.597656 -48.957031 119.421875 -46.78125 C 117.242188 -44.601562 116.15625 -41.957031 116.15625 -38.84375 L 116.15625 0 C 113.90625 -1.363281 111.472656 -2.484375 108.859375 -3.359375 C 106.242188 -4.234375 103.195312 -4.671875 99.71875 -4.671875 C 95.238281 -4.671875 91.285156 -4.296875 87.859375 -3.546875 C 84.429688 -2.796875 81.035156 -2.015625 77.671875 -1.203125 C 74.316406 -0.398438 70.523438 0 66.296875 0 C 58.203125 0 50.601562 -1.675781 43.5 -5.03125 C 36.40625 -8.394531 30.148438 -13.097656 24.734375 -19.140625 C 19.328125 -25.179688 15.097656 -32.148438 12.046875 -40.046875 C 8.992188 -47.953125 7.46875 -56.390625 7.46875 -65.359375 C 7.46875 -74.316406 8.992188 -82.75 12.046875 -90.65625 C 15.097656 -98.5625 19.328125 -105.53125 24.734375 -111.5625 C 30.148438 -117.601562 36.40625 -122.304688 43.5 -125.671875 C 50.601562 -129.035156 58.203125 -130.71875 66.296875 -130.71875 C 73.015625 -130.71875 79.359375 -129.566406 85.328125 -127.265625 C 91.304688 -124.960938 96.628906 -122.003906 101.296875 -118.390625 C 105.972656 -114.773438 109.617188 -110.851562 112.234375 -106.625 C 113.472656 -104.632812 114.4375 -102.578125 115.125 -100.453125 C 115.8125 -98.335938 116.15625 -96.285156 116.15625 -94.296875 C 116.15625 -88.816406 114.191406 -84.113281 110.265625 -80.1875 C 106.347656 -76.269531 101.648438 -74.3125 96.171875 -74.3125 C 90.691406 -74.3125 85.988281 -76.269531 82.0625 -80.1875 C 78.144531 -84.113281 76.1875 -88.816406 76.1875 -94.296875 C 76.1875 -97.410156 76.742188 -100.054688 77.859375 -102.234375 C 78.984375 -104.410156 80.257812 -106.335938 81.6875 -108.015625 C 83.125 -109.703125 84.398438 -111.382812 85.515625 -113.0625 C 86.640625 -114.75 87.203125 -116.710938 87.203125 -118.953125 C 87.203125 -121.941406 85.894531 -124.210938 83.28125 -125.765625 C 80.664062 -127.316406 77.707031 -128.34375 74.40625 -128.84375 C 71.113281 -129.34375 68.410156 -129.59375 66.296875 -129.59375 C 61.929688 -129.59375 57.910156 -126.695312 54.234375 -120.90625 C 50.566406 -115.125 47.644531 -107.375 45.46875 -97.65625 C 43.289062 -87.945312 42.203125 -77.179688 42.203125 -65.359375 C 42.203125 -53.535156 43.289062 -42.765625 45.46875 -33.046875 C 47.644531 -23.335938 50.566406 -15.585938 54.234375 -9.796875 C 57.910156 -4.015625 61.929688 -1.125 66.296875 -1.125 C 68.410156 -1.125 71.175781 -1.367188 74.59375 -1.859375 C 78.019531 -2.359375 80.914062 -3.421875 83.28125 -5.046875 L 83.28125 -38.84375 C 83.28125 -41.957031 82.191406 -44.601562 80.015625 -46.78125 C 77.835938 -48.957031 75.128906 -50.046875 71.890625 -50.046875 Z M 71.890625 -51.171875 "/></g></g></g><g fill="var(--copy)" fill-opacity="1"><g transform="translate(241.677407, 214.480449)"><g><path d="M 84.21875 -65.921875 C 90.8125 -65.671875 96.753906 -64.019531 102.046875 -60.96875 C 107.335938 -57.914062 111.570312 -53.960938 114.75 -49.109375 C 117.925781 -44.253906 119.515625 -38.835938 119.515625 -32.859375 C 119.515625 -26.765625 117.832031 -21.257812 114.46875 -16.34375 C 111.101562 -11.425781 106.617188 -7.472656 101.015625 -4.484375 C 95.421875 -1.492188 89.195312 0 82.34375 0 L 5.609375 0 L 5.609375 -1.125 C 8.710938 -1.125 11.351562 -2.210938 13.53125 -4.390625 C 15.71875 -6.566406 16.8125 -9.210938 16.8125 -12.328125 L 16.8125 -118.390625 C 16.8125 -121.503906 15.71875 -124.148438 13.53125 -126.328125 C 11.351562 -128.503906 8.710938 -129.59375 5.609375 -129.59375 L 5.609375 -130.71875 L 75.8125 -130.71875 C 81.914062 -130.71875 87.425781 -129.222656 92.34375 -126.234375 C 97.257812 -123.242188 101.179688 -119.257812 104.109375 -114.28125 C 107.035156 -109.300781 108.5 -103.757812 108.5 -97.65625 C 108.5 -90.0625 106.191406 -83.335938 101.578125 -77.484375 C 96.972656 -71.640625 91.1875 -67.785156 84.21875 -65.921875 Z M 49.671875 -129.59375 L 49.671875 -65.921875 L 56.578125 -65.921875 C 60.066406 -65.921875 63.242188 -67.347656 66.109375 -70.203125 C 68.972656 -73.066406 71.242188 -76.894531 72.921875 -81.6875 C 74.597656 -86.488281 75.4375 -91.8125 75.4375 -97.65625 C 75.4375 -103.632812 74.597656 -109.019531 72.921875 -113.8125 C 71.242188 -118.601562 68.972656 -122.429688 66.109375 -125.296875 C 63.242188 -128.160156 60.066406 -129.59375 56.578125 -129.59375 Z M 60.3125 -1.125 C 64.300781 -1.125 67.941406 -2.550781 71.234375 -5.40625 C 74.535156 -8.269531 77.148438 -12.128906 79.078125 -16.984375 C 81.003906 -21.847656 81.96875 -27.203125 81.96875 -33.046875 C 81.96875 -38.898438 81.003906 -44.222656 79.078125 -49.015625 C 77.148438 -53.804688 74.535156 -57.632812 71.234375 -60.5 C 67.941406 -63.363281 64.300781 -64.796875 60.3125 -64.796875 L 49.671875 -64.796875 L 49.671875 -1.125 Z M 60.3125 -1.125 "/></g></g></g><g fill="var(--copy)" fill-opacity="1"><g transform="translate(45.279988, 286.367999)"><g><path d="M 2.171875 -50.6875 L 45.703125 -50.6875 L 45.703125 -37 L 45.265625 -37 C 44.296875 -40.820312 42.59375 -43.988281 40.15625 -46.5 C 37.71875 -49.007812 34.445312 -50.265625 30.34375 -50.265625 L 30.34375 -4.78125 C 30.34375 -3.570312 30.765625 -2.546875 31.609375 -1.703125 C 32.453125 -0.859375 33.476562 -0.4375 34.6875 -0.4375 L 34.6875 0 L 13.1875 0 L 13.1875 -0.4375 C 14.4375 -0.4375 15.472656 -0.859375 16.296875 -1.703125 C 17.117188 -2.546875 17.53125 -3.570312 17.53125 -4.78125 L 17.53125 -50.265625 C 13.425781 -50.265625 10.15625 -49.007812 7.71875 -46.5 C 5.28125 -43.988281 3.578125 -40.820312 2.609375 -37 L 2.171875 -37 Z M 2.171875 -50.6875 "/></g></g></g><g fill="var(--copy)" fill-opacity="1"><g transform="translate(93.139985, 286.367999)"><g><path d="M 34.6875 -3.984375 C 34.6875 -3.109375 34.972656 -2.332031 35.546875 -1.65625 C 36.128906 -0.988281 36.832031 -0.582031 37.65625 -0.4375 L 37.65625 0 L 20.859375 0 L 20.859375 -0.4375 C 21.679688 -0.582031 22.378906 -0.988281 22.953125 -1.65625 C 23.535156 -2.332031 23.828125 -3.109375 23.828125 -3.984375 L 23.828125 -25.34375 C 23.828125 -26.601562 24.140625 -27.59375 24.765625 -28.3125 C 25.390625 -29.039062 26.015625 -29.726562 26.640625 -30.375 C 27.273438 -31.03125 27.59375 -31.789062 27.59375 -32.65625 C 27.59375 -33.476562 27.132812 -34.109375 26.21875 -34.546875 C 25.300781 -34.984375 24.117188 -35.203125 22.671875 -35.203125 C 20.878906 -35.203125 19.316406 -34.945312 17.984375 -34.4375 C 16.660156 -33.925781 15.878906 -33.625 15.640625 -33.53125 L 15.640625 -3.984375 C 15.640625 -3.109375 15.925781 -2.332031 16.5 -1.65625 C 17.082031 -0.988281 17.785156 -0.582031 18.609375 -0.4375 L 18.609375 0 L 1.8125 0 L 1.8125 -0.4375 C 2.632812 -0.582031 3.332031 -0.988281 3.90625 -1.65625 C 4.488281 -2.332031 4.78125 -3.109375 4.78125 -3.984375 L 4.78125 -44.90625 C 4.78125 -45.769531 4.488281 -46.539062 3.90625 -47.21875 C 3.332031 -47.894531 2.632812 -48.304688 1.8125 -48.453125 L 1.8125 -48.890625 L 14.1875 -50.6875 C 14.238281 -50.6875 14.273438 -50.6875 14.296875 -50.6875 C 14.328125 -50.6875 14.363281 -50.6875 14.40625 -50.6875 C 15.226562 -50.6875 15.640625 -50.253906 15.640625 -49.390625 L 15.640625 -34.03125 C 16.992188 -34.707031 18.503906 -35.25 20.171875 -35.65625 C 21.835938 -36.070312 23.515625 -36.28125 25.203125 -36.28125 C 26.890625 -36.28125 28.457031 -35.953125 29.90625 -35.296875 C 31.351562 -34.648438 32.507812 -33.613281 33.375 -32.1875 C 34.25 -30.769531 34.6875 -28.828125 34.6875 -26.359375 Z M 34.6875 -3.984375 "/></g></g></g><g fill="var(--copy)" fill-opacity="1"><g transform="translate(132.600959, 286.367999)"><g><path d="M 25.203125 -4.640625 C 26.597656 -4.640625 27.9375 -4.972656 29.21875 -5.640625 C 30.5 -6.316406 31.644531 -7.257812 32.65625 -8.46875 L 33.03125 -8.25 C 31.582031 -5.644531 29.625 -3.554688 27.15625 -1.984375 C 24.695312 -0.421875 21.992188 0.359375 19.046875 0.359375 C 16.003906 0.359375 13.238281 -0.457031 10.75 -2.09375 C 8.269531 -3.738281 6.28125 -5.945312 4.78125 -8.71875 C 3.28125 -11.5 2.53125 -14.578125 2.53125 -17.953125 C 2.53125 -21.335938 3.28125 -24.414062 4.78125 -27.1875 C 6.28125 -29.96875 8.269531 -32.175781 10.75 -33.8125 C 13.238281 -35.457031 16.003906 -36.28125 19.046875 -36.28125 C 21.703125 -36.28125 24.078125 -35.648438 26.171875 -34.390625 C 28.273438 -33.140625 30.039062 -31.441406 31.46875 -29.296875 C 32.894531 -27.148438 33.875 -24.695312 34.40625 -21.9375 L 13.390625 -21.9375 C 13.390625 -18.75 13.921875 -15.835938 14.984375 -13.203125 C 16.046875 -10.578125 17.46875 -8.492188 19.25 -6.953125 C 21.039062 -5.410156 23.023438 -4.640625 25.203125 -4.640625 Z M 19.046875 -35.84375 C 18.035156 -35.84375 17.203125 -35.46875 16.546875 -34.71875 C 15.898438 -33.976562 15.359375 -33.015625 14.921875 -31.828125 C 14.484375 -30.648438 14.164062 -29.429688 13.96875 -28.171875 C 13.78125 -26.921875 13.632812 -25.765625 13.53125 -24.703125 C 13.4375 -23.640625 13.390625 -22.863281 13.390625 -22.375 L 24.546875 -22.375 C 24.117188 -31.351562 22.285156 -35.84375 19.046875 -35.84375 Z M 19.046875 -35.84375 "/></g></g></g><g fill="var(--copy)" fill-opacity="1"><g transform="translate(168.803694, 286.367999)"><g><path d="M 32.296875 -5.4375 C 32.296875 -4.5625 32.582031 -3.785156 33.15625 -3.109375 C 33.738281 -2.429688 34.441406 -2.023438 35.265625 -1.890625 L 35.265625 -1.453125 L 22.8125 0.359375 C 22.8125 0.359375 22.796875 0.359375 22.765625 0.359375 C 22.742188 0.359375 22.710938 0.359375 22.671875 0.359375 C 22.328125 0.359375 22.019531 0.226562 21.75 -0.03125 C 21.488281 -0.300781 21.359375 -0.601562 21.359375 -0.9375 L 21.359375 -2.75 C 20.492188 -2.125 19.320312 -1.445312 17.84375 -0.71875 C 16.375 0 14.625 0.359375 12.59375 0.359375 C 10.332031 0.359375 8.28125 -0.242188 6.4375 -1.453125 C 4.601562 -2.660156 3.421875 -4.273438 2.890625 -6.296875 C 2.316406 -8.378906 2.535156 -10.410156 3.546875 -12.390625 C 4.554688 -14.367188 6.050781 -15.957031 8.03125 -17.15625 C 9.289062 -17.9375 10.882812 -18.675781 12.8125 -19.375 C 14.75 -20.070312 16.78125 -20.769531 18.90625 -21.46875 C 21.03125 -22.164062 23.019531 -22.890625 24.875 -23.640625 C 26.738281 -24.390625 28.257812 -25.210938 29.4375 -26.109375 C 30.625 -27.003906 31.21875 -28.003906 31.21875 -29.109375 C 31.21875 -30.078125 30.789062 -31.039062 29.9375 -32 C 29.09375 -32.96875 28.09375 -33.742188 26.9375 -34.328125 C 25.539062 -35.003906 23.992188 -35.460938 22.296875 -35.703125 C 20.609375 -35.941406 18.875 -35.914062 17.09375 -35.625 C 14.34375 -35.238281 12.96875 -34.320312 12.96875 -32.875 C 12.96875 -32.007812 13.234375 -31.257812 13.765625 -30.625 C 14.296875 -30 14.8125 -29.335938 15.3125 -28.640625 C 15.820312 -27.941406 16.078125 -27.035156 16.078125 -25.921875 C 16.078125 -24.378906 15.519531 -23.0625 14.40625 -21.96875 C 13.300781 -20.882812 11.972656 -20.34375 10.421875 -20.34375 C 8.878906 -20.34375 7.566406 -20.882812 6.484375 -21.96875 C 5.398438 -23.0625 4.859375 -24.378906 4.859375 -25.921875 C 4.859375 -27.804688 5.507812 -29.460938 6.8125 -30.890625 C 8.113281 -32.316406 9.71875 -33.472656 11.625 -34.359375 C 13.53125 -35.253906 15.328125 -35.820312 17.015625 -36.0625 C 20.878906 -36.644531 24.257812 -36.1875 27.15625 -34.6875 C 28.5625 -34.007812 29.769531 -33.054688 30.78125 -31.828125 C 31.789062 -30.597656 32.296875 -29.085938 32.296875 -27.296875 Z M 21.359375 -3.265625 L 21.359375 -21.875 C 20.398438 -21.4375 19.328125 -20.84375 18.140625 -20.09375 C 16.960938 -19.34375 15.9375 -18.328125 15.0625 -17.046875 C 14.195312 -15.773438 13.691406 -14.125 13.546875 -12.09375 C 13.441406 -10.351562 13.582031 -8.816406 13.96875 -7.484375 C 14.363281 -6.160156 14.945312 -5.085938 15.71875 -4.265625 C 16.539062 -3.398438 17.492188 -2.867188 18.578125 -2.671875 C 19.660156 -2.484375 20.585938 -2.679688 21.359375 -3.265625 Z M 21.359375 -3.265625 "/></g></g></g><g fill="var(--copy)" fill-opacity="1"><g transform="translate(205.875286, 286.367999)"><g><path d="M 19.546875 -2.609375 C 20.367188 -2.609375 21.09375 -2.828125 21.71875 -3.265625 L 21.71875 -2.75 C 20.851562 -2.125 19.671875 -1.445312 18.171875 -0.71875 C 16.679688 0 14.921875 0.359375 12.890625 0.359375 C 10.671875 0.359375 8.765625 -0.4375 7.171875 -2.03125 C 5.578125 -3.625 4.78125 -5.53125 4.78125 -7.75 L 4.78125 -35.125 L 1.8125 -35.125 L 1.8125 -35.5625 C 4.507812 -35.5625 7.03125 -36.148438 9.375 -37.328125 C 11.71875 -38.515625 13.660156 -40.097656 15.203125 -42.078125 L 15.640625 -42.078125 L 15.640625 -35.5625 L 20.34375 -35.5625 L 20.34375 -35.125 L 15.640625 -35.125 L 15.640625 -6.515625 C 15.640625 -5.453125 16.023438 -4.535156 16.796875 -3.765625 C 17.566406 -2.992188 18.484375 -2.609375 19.546875 -2.609375 Z M 19.546875 -2.609375 "/></g></g></g><g fill="var(--copy)" fill-opacity="1"><g transform="translate(228.68301, 286.367999)"><g><path d="M 25.203125 -4.640625 C 26.597656 -4.640625 27.9375 -4.972656 29.21875 -5.640625 C 30.5 -6.316406 31.644531 -7.257812 32.65625 -8.46875 L 33.03125 -8.25 C 31.582031 -5.644531 29.625 -3.554688 27.15625 -1.984375 C 24.695312 -0.421875 21.992188 0.359375 19.046875 0.359375 C 16.003906 0.359375 13.238281 -0.457031 10.75 -2.09375 C 8.269531 -3.738281 6.28125 -5.945312 4.78125 -8.71875 C 3.28125 -11.5 2.53125 -14.578125 2.53125 -17.953125 C 2.53125 -21.335938 3.28125 -24.414062 4.78125 -27.1875 C 6.28125 -29.96875 8.269531 -32.175781 10.75 -33.8125 C 13.238281 -35.457031 16.003906 -36.28125 19.046875 -36.28125 C 21.703125 -36.28125 24.078125 -35.648438 26.171875 -34.390625 C 28.273438 -33.140625 30.039062 -31.441406 31.46875 -29.296875 C 32.894531 -27.148438 33.875 -24.695312 34.40625 -21.9375 L 13.390625 -21.9375 C 13.390625 -18.75 13.921875 -15.835938 14.984375 -13.203125 C 16.046875 -10.578125 17.46875 -8.492188 19.25 -6.953125 C 21.039062 -5.410156 23.023438 -4.640625 25.203125 -4.640625 Z M 19.046875 -35.84375 C 18.035156 -35.84375 17.203125 -35.46875 16.546875 -34.71875 C 15.898438 -33.976562 15.359375 -33.015625 14.921875 -31.828125 C 14.484375 -30.648438 14.164062 -29.429688 13.96875 -28.171875 C 13.78125 -26.921875 13.632812 -25.765625 13.53125 -24.703125 C 13.4375 -23.640625 13.390625 -22.863281 13.390625 -22.375 L 24.546875 -22.375 C 24.117188 -31.351562 22.285156 -35.84375 19.046875 -35.84375 Z M 19.046875 -35.84375 "/></g></g></g><g fill="var(--copy)" fill-opacity="1"><g transform="translate(264.885746, 286.367999)"><g><path d="M 24.90625 -37 C 26.457031 -36.957031 27.785156 -36.40625 28.890625 -35.34375 C 30.003906 -34.28125 30.5625 -32.976562 30.5625 -31.4375 C 30.5625 -29.882812 30.003906 -28.550781 28.890625 -27.4375 C 27.785156 -26.332031 26.457031 -25.78125 24.90625 -25.78125 C 23.414062 -25.78125 22.113281 -26.332031 21 -27.4375 C 19.894531 -28.550781 19.34375 -29.882812 19.34375 -31.4375 C 19.34375 -31.914062 19.375 -32.273438 19.4375 -32.515625 C 19.507812 -32.753906 19.546875 -33.019531 19.546875 -33.3125 C 19.546875 -34.039062 19.160156 -34.40625 18.390625 -34.40625 C 17.710938 -34.40625 16.796875 -34.113281 15.640625 -33.53125 L 15.640625 -3.984375 C 15.640625 -3.109375 15.925781 -2.332031 16.5 -1.65625 C 17.082031 -0.988281 17.785156 -0.582031 18.609375 -0.4375 L 18.609375 0 L 1.8125 0 L 1.8125 -0.4375 C 2.632812 -0.582031 3.332031 -0.988281 3.90625 -1.65625 C 4.488281 -2.332031 4.78125 -3.109375 4.78125 -3.984375 L 4.78125 -29.765625 C 4.78125 -30.679688 4.488281 -31.460938 3.90625 -32.109375 C 3.332031 -32.765625 2.632812 -33.164062 1.8125 -33.3125 L 1.8125 -33.75 L 14.1875 -35.5625 C 14.238281 -35.5625 14.273438 -35.5625 14.296875 -35.5625 C 14.328125 -35.5625 14.363281 -35.5625 14.40625 -35.5625 C 14.789062 -35.5625 15.09375 -35.4375 15.3125 -35.1875 C 15.53125 -34.945312 15.640625 -34.660156 15.640625 -34.328125 L 15.640625 -33.96875 C 16.941406 -34.644531 18.460938 -35.34375 20.203125 -36.0625 C 21.941406 -36.789062 23.507812 -37.101562 24.90625 -37 Z M 24.90625 -37 "/></g></g></g><g fill="var(--copy)" fill-opacity="1"><g transform="translate(297.250981, 286.367999)"><g><path d="M 29.84375 -9.78125 C 29.988281 -7.894531 29.429688 -6.175781 28.171875 -4.625 C 26.921875 -3.082031 25.234375 -1.863281 23.109375 -0.96875 C 20.984375 -0.0820312 18.664062 0.359375 16.15625 0.359375 C 13.6875 0.359375 11.425781 -0.046875 9.375 -0.859375 C 7.320312 -1.679688 5.664062 -2.804688 4.40625 -4.234375 C 3.15625 -5.660156 2.53125 -7.265625 2.53125 -9.046875 C 2.53125 -10.597656 3.082031 -11.914062 4.1875 -13 C 5.300781 -14.082031 6.609375 -14.625 8.109375 -14.625 C 9.648438 -14.625 10.976562 -14.082031 12.09375 -13 C 13.207031 -11.914062 13.765625 -10.597656 13.765625 -9.046875 C 13.765625 -7.742188 13.484375 -6.742188 12.921875 -6.046875 C 12.367188 -5.347656 11.800781 -4.769531 11.21875 -4.3125 C 10.644531 -3.851562 10.359375 -3.304688 10.359375 -2.671875 C 10.359375 -2.148438 10.625 -1.644531 11.15625 -1.15625 C 11.6875 -0.675781 12.3125 -0.390625 13.03125 -0.296875 C 13.519531 -0.242188 13.976562 -0.191406 14.40625 -0.140625 C 14.84375 -0.0976562 15.425781 -0.078125 16.15625 -0.078125 C 17.457031 -0.078125 18.566406 -0.535156 19.484375 -1.453125 C 20.398438 -2.367188 20.859375 -3.476562 20.859375 -4.78125 C 20.859375 -5.988281 20.410156 -7.160156 19.515625 -8.296875 C 18.617188 -9.429688 17.484375 -10.5625 16.109375 -11.6875 C 14.734375 -12.820312 13.257812 -13.992188 11.6875 -15.203125 C 10.125 -16.410156 8.65625 -17.65625 7.28125 -18.9375 C 5.90625 -20.21875 4.769531 -21.59375 3.875 -23.0625 C 2.976562 -24.539062 2.53125 -26.125 2.53125 -27.8125 C 2.53125 -29.738281 3.179688 -31.328125 4.484375 -32.578125 C 5.796875 -33.835938 7.390625 -34.769531 9.265625 -35.375 C 11.148438 -35.976562 12.988281 -36.28125 14.78125 -36.28125 C 16.507812 -36.28125 17.96875 -36.109375 19.15625 -35.765625 C 20.34375 -35.429688 21.40625 -35.117188 22.34375 -34.828125 C 23.28125 -34.546875 24.257812 -34.425781 25.28125 -34.46875 C 25.664062 -34.519531 26.015625 -34.617188 26.328125 -34.765625 C 26.640625 -34.910156 26.890625 -35.078125 27.078125 -35.265625 L 27.453125 -35.265625 L 27.453125 -23.53125 C 27.453125 -23.53125 27.414062 -23.53125 27.34375 -23.53125 C 27.269531 -23.53125 27.179688 -23.53125 27.078125 -23.53125 C 26.796875 -24.976562 26.316406 -26.59375 25.640625 -28.375 C 24.960938 -30.164062 23.957031 -31.757812 22.625 -33.15625 C 21.300781 -34.5625 19.457031 -35.410156 17.09375 -35.703125 C 15.832031 -35.898438 14.742188 -35.660156 13.828125 -34.984375 C 12.910156 -34.304688 12.40625 -33.191406 12.3125 -31.640625 C 12.21875 -30.097656 12.710938 -28.675781 13.796875 -27.375 C 14.878906 -26.070312 16.265625 -24.78125 17.953125 -23.5 C 19.648438 -22.21875 21.378906 -20.898438 23.140625 -19.546875 C 24.898438 -18.203125 26.40625 -16.734375 27.65625 -15.140625 C 28.914062 -13.546875 29.644531 -11.757812 29.84375 -9.78125 Z M 29.84375 -9.78125 "/></g></g></g></svg>